<svg width="33" height="33" viewBox="0 0 33 33" fill="none" xmlns="http://www.w3.org/2000/svg">
<path fill-rule="evenodd" clip-rule="evenodd" d="M10.2936 29.5625H21.7718C25.988 29.5625 29.2226 28.0396 28.3039 21.9104L27.234 13.6037C26.6677 10.5453 24.717 9.37482 23.0052 9.37482H9.00981C7.27297 9.37482 5.43544 10.6334 4.78097 13.6037L3.71118 21.9104C2.93087 27.3474 6.07732 29.5625 10.2936 29.5625Z" stroke="#FF9F47" stroke-width="1.5" stroke-linecap="round" stroke-linejoin="round"/>
<path d="M10.1049 9.07279C10.1049 5.79194 12.7645 3.13228 16.0453 3.13228C17.6252 3.12558 19.1427 3.7485 20.2622 4.86329C21.3817 5.97808 22.011 7.4929 22.011 9.07279" stroke="#FF9F47" stroke-width="1.5" stroke-linecap="round" stroke-linejoin="round"/>
<path d="M11.9675 15.265H12.0305" stroke="#FF9F47" stroke-width="1.5" stroke-linecap="round" stroke-linejoin="round"/>
<path d="M19.9846 15.265H20.0476" stroke="#FF9F47" stroke-width="1.5" stroke-linecap="round" stroke-linejoin="round"/>
</svg>
