<svg width="26" height="26" viewBox="0 0 26 26" fill="none" xmlns="http://www.w3.org/2000/svg">
<path d="M20.7743 10.1783C20.7743 10.1783 20.1906 17.4184 19.8519 20.4682C19.6907 21.9248 18.7909 22.7784 17.3171 22.8053C14.5124 22.8558 11.7045 22.859 8.90092 22.7999C7.483 22.7709 6.59827 21.9066 6.44025 20.4757C6.09947 17.3991 5.51897 10.1783 5.51897 10.1783M22.2613 6.7077H4.03149M18.7487 6.70768C17.9048 6.70768 17.1781 6.11105 17.0126 5.28438L16.7513 3.97718C16.5901 3.3741 16.044 2.957 15.4216 2.957H10.8711C10.2487 2.957 9.70255 3.3741 9.5413 3.97718L9.28008 5.28438C9.11453 6.11105 8.38783 6.70768 7.54395 6.70768" stroke="white" stroke-width="1.3" stroke-linecap="round" stroke-linejoin="round"/>
</svg>
